<svg width="20" height="15" viewBox="0 0 20 15" fill="none" xmlns="http://www.w3.org/2000/svg">
  <path
    d="M9.1783 14.569C9.27004 14.7022 9.3928 14.8112 9.53599 14.8864C9.67919 14.9617 9.83854 15.001 10.0003 15.001C10.1621 15.001 10.3214 14.9617 10.4646 14.8864C10.6078 14.8112 10.7306 14.7022 10.8223 14.569L19.8223 1.569C19.9265 1.41906 19.9876 1.24343 19.9989 1.06121C20.0103 0.87898 19.9715 0.697123 19.8868 0.535394C19.8021 0.373665 19.6746 0.238248 19.5183 0.143858C19.3621 0.049468 19.1829 -0.000286344 19.0003 1.23965e-06H1.0003C0.818147 0.000753649 0.639641 0.0511479 0.483984 0.145764C0.328326 0.24038 0.201406 0.375639 0.116872 0.536994C0.0323376 0.698349 -0.00661176 0.879696 0.0042122 1.06153C0.0150362 1.24337 0.0752239 1.41881 0.178303 1.569L9.1783 14.569Z"
    fill="#C6CACC" />
</svg>
