
<svg width="142" height="141" viewBox="0 0 142 141" fill="none" xmlns="http://www.w3.org/2000/svg">
<ellipse cx="71.1431" cy="70.5775" rx="70.4083" ry="70.4225" fill="url(#paint0_linear)"/>
<path fill-rule="evenodd" clip-rule="evenodd" d="M71.1431 130.694C104.338 130.694 131.248 103.779 131.248 70.5775C131.248 37.3759 104.338 10.4607 71.1431 10.4607C37.9483 10.4607 11.0385 37.3759 11.0385 70.5775C11.0385 103.779 37.9483 130.694 71.1431 130.694ZM71.1431 141C110.029 141 141.551 109.471 141.551 70.5775C141.551 31.6842 110.029 0.154922 71.1431 0.154922C32.2577 0.154922 0.734863 31.6842 0.734863 70.5775C0.734863 109.471 32.2577 141 71.1431 141Z" fill="black" fill-opacity="0.1"/>
<path d="M50.7765 44.9417C73.4611 25.6797 87.5302 30.9116 92.4546 36.1002C94.0377 42.5642 91.136 41.9048 84.014 46.3906C76.892 50.8764 75.5734 56.681 72.9363 68.2903C70.2992 79.8995 63.1772 84.3853 57.3737 83.0665C51.5703 81.7476 45.3722 95.5998 42.4704 94.9404C33.7653 92.9621 32.8414 83.5958 32.8414 83.5958C32.8414 83.5958 28.0919 64.2037 50.7765 44.9417Z" fill="white"/>
<path d="M88.4989 53.5141C96.2802 46.1259 100.5 40.9808 105.645 45.2019C113.361 51.5336 117.86 69.3427 98.6571 89.396C74.654 114.463 57.9029 107.604 55.0012 106.944C52.0995 106.285 44.7129 98.5021 51.8349 94.0163C63.0958 86.9236 67.6621 91.5087 76.7619 78.316C86.615 64.0312 80.7176 60.9022 88.4989 53.5141Z" fill="white"/>
<defs>
<linearGradient id="paint0_linear" x1="0.734862" y1="70.5773" x2="141.551" y2="70.5773" gradientUnits="userSpaceOnUse">
<stop stop-color="#FDC975"/>
<stop offset="1" stop-color="#FFE162"/>
</linearGradient>
</defs>
</svg>
