<svg width="40" height="40" viewBox="0 0 40 40" fill="none" xmlns="http://www.w3.org/2000/svg">
<path d="M9.84683 8.17678C20.5111 -0.876628 27.1251 1.58247 29.4401 4.02117C30.1843 7.05935 28.8202 6.74943 25.4721 8.85781C22.124 10.9662 21.5041 13.6944 20.2644 19.151C19.0246 24.6075 15.6765 26.7158 12.9483 26.096C10.22 25.4761 7.3062 31.9868 5.94207 31.6769C1.8497 30.7471 1.41538 26.3448 1.41538 26.3448C1.41538 26.3448 -0.817397 17.2302 9.84683 8.17678Z" fill="#B0865B"/>
<path d="M27.5805 12.2059C31.2385 8.73341 33.2225 6.31511 35.6408 8.2991C39.2683 11.2751 41.3832 19.6456 32.356 29.0709C21.0719 40.8526 13.197 37.6289 11.8329 37.3189C10.4688 37.009 6.99627 33.3509 10.3444 31.2425C15.6382 27.9089 17.7849 30.064 22.0628 23.8632C26.6949 17.1491 23.9224 15.6784 27.5805 12.2059Z" fill="#B0865B"/>
</svg>
