<svg width="540" height="573" viewBox="0 0 540 573" fill="none" xmlns="http://www.w3.org/2000/svg"
  xmlns:xlink="http://www.w3.org/1999/xlink">
  <path
    d="M408.432 550.622H422.535V557.084C422.535 558.188 421.64 559.084 420.535 559.084H410.432C409.328 559.084 408.432 558.188 408.432 557.084V550.622Z"
    fill="#AF9780" />
  <path
    d="M165.867 550.622H179.97V557.084C179.97 558.188 179.074 559.084 177.97 559.084H167.867C166.762 559.084 165.867 558.188 165.867 557.084V550.622Z"
    fill="#AF9780" />
  <path
    d="M120.739 550.622H134.841V557.084C134.841 558.188 133.946 559.084 132.841 559.084H122.739C121.634 559.084 120.739 558.188 120.739 557.084V550.622Z"
    fill="#AF9780" />
  <path
    d="M249.778 298.185C249.778 290.288 241.316 285.023 237.085 283.377H430.291C429.351 285.258 427.471 290.006 427.471 293.954C427.471 302.416 439.458 306.647 443.689 312.288C447.919 317.929 447.919 329.916 447.919 335.557V461.776C447.919 470.237 445.804 475.878 439.458 475.878H242.726C235.675 475.878 234.265 469.532 234.265 461.776V335.557C234.265 329.211 234.265 320.749 239.201 315.108C246.469 306.802 249.778 308.057 249.778 298.185Z"
    fill="#CFB580" fill-opacity="0.3" />
  <path
    d="M299.842 298.185C299.842 290.288 291.38 285.023 287.149 283.377H430.291C429.351 285.258 427.47 290.006 427.47 293.954C427.47 302.416 439.458 306.647 443.688 312.288C447.919 317.929 447.919 329.916 447.919 335.557V461.776C447.919 470.237 445.804 475.878 439.458 475.878H292.79C285.739 475.878 284.329 469.532 284.329 461.776V335.557C284.329 329.211 284.329 320.749 289.265 315.108C296.533 306.802 299.842 308.057 299.842 298.185Z"
    fill="#C4BB91" fill-opacity="0.4" />
  <path
    d="M373.176 461.776V335.557C373.176 331.943 373.176 327.644 374.087 323.57H430.425C430.997 328.093 430.997 332.661 430.997 335.557V461.776C430.997 470.237 428.881 475.878 422.535 475.878H381.638C374.586 475.878 373.176 469.532 373.176 461.776Z"
    fill="#FFF8E8" fill-opacity="0.5" />
  <path
    d="M405.612 298.89C410.689 298.89 411.018 288.078 410.548 283.377H354.138C353.902 288.078 354.42 298.89 358.368 298.89H405.612Z"
    fill="#FFF8E8" fill-opacity="0.5" />
  <path fill-rule="evenodd" clip-rule="evenodd"
    d="M243.349 290.196C240.971 287.939 238.081 286.367 236.206 285.638L237.964 281.117C240.32 282.033 243.777 283.916 246.687 286.677C249.593 289.434 252.203 293.318 252.203 298.185C252.203 300.765 251.99 302.805 251.468 304.528C250.928 306.313 250.093 307.642 249.03 308.842C248.23 309.744 247.252 310.619 246.248 311.517C246.014 311.726 245.78 311.935 245.546 312.147C244.252 313.317 242.757 314.726 241.026 316.705C238.959 319.067 237.847 322.11 237.272 325.476C236.695 328.856 236.69 332.355 236.69 335.557V461.776C236.69 465.609 237.057 468.655 238.035 470.681C238.499 471.642 239.064 472.294 239.733 472.72C240.399 473.145 241.337 473.453 242.726 473.453H439.458C440.675 473.453 441.547 473.187 442.2 472.791C442.856 472.393 443.437 471.777 443.931 470.855C444.965 468.925 445.494 465.892 445.494 461.776V335.557C445.494 332.727 445.492 328.456 444.983 324.211C444.461 319.865 443.454 316.017 441.749 313.743C440.902 312.614 439.586 311.459 437.891 310.155C437.274 309.68 436.564 309.156 435.824 308.609C434.709 307.784 433.524 306.909 432.478 306.072C428.934 303.237 425.046 299.421 425.046 293.954C425.046 289.441 427.125 284.287 428.122 282.293L432.46 284.462C431.577 286.228 429.896 290.57 429.896 293.954C429.896 296.95 432.001 299.479 435.508 302.285C436.537 303.108 437.526 303.837 438.54 304.584C439.287 305.134 440.047 305.695 440.849 306.311C442.591 307.652 444.36 309.141 445.629 310.833C448.154 314.2 449.262 319.166 449.799 323.633C450.345 328.185 450.345 332.709 450.345 335.523V461.776C450.345 466.121 449.817 470.139 448.206 473.145C447.378 474.691 446.24 476.014 444.714 476.939C443.186 477.865 441.414 478.303 439.458 478.303H242.726C240.59 478.303 238.708 477.818 237.126 476.811C235.547 475.805 234.437 474.385 233.667 472.79C232.178 469.704 231.84 465.698 231.84 461.776L231.84 335.48C231.84 332.35 231.84 328.477 232.491 324.66C233.15 320.799 234.506 316.79 237.376 313.511C239.278 311.337 240.923 309.788 242.293 308.549C242.588 308.283 242.862 308.037 243.117 307.808C244.094 306.933 244.804 306.297 245.4 305.625C246.072 304.867 246.518 304.14 246.826 303.123C247.152 302.046 247.352 300.541 247.352 298.185C247.352 295.155 245.732 292.457 243.349 290.196Z"
    fill="white" />
  <path
    d="M515.112 264.339H271.586C267.72 264.339 264.586 267.473 264.586 271.339V277.082C264.586 280.948 267.72 284.082 271.586 284.082H498.215C500.424 284.082 502.215 285.873 502.215 288.082V433.801C502.215 436.01 500.424 437.801 498.215 437.801H447.215V455.429H513.712C516.817 455.429 519.879 454.706 522.656 453.318L527.369 450.961C533.128 448.082 536.766 442.195 536.766 435.756V289.067C536.766 283.152 534.488 277.464 530.404 273.186L526.686 269.291C523.667 266.128 519.485 264.339 515.112 264.339Z"
    fill="#4F4E48" />
  <path
    d="M184.2 478.698H448.561C451.322 478.698 453.561 480.937 453.561 483.698V547.032C453.561 549.793 451.322 552.032 448.561 552.032H184.2V478.698Z"
    fill="#D5CFBC" />
  <path
    d="M371.766 478.698H428.407C430.616 478.698 432.407 480.489 432.407 482.698V548.032C432.407 550.241 430.616 552.032 428.407 552.032H371.766V478.698Z"
    fill="#FFF8E8" fill-opacity="0.5" />
  <path
    d="M198.303 33.0555H426.766V181.838L411.249 234.596C409.997 238.852 406.091 241.774 401.655 241.774H198.303V33.0555Z"
    fill="#E4E1BD" />
  <mask id="mask0" mask-type="alpha" maskUnits="userSpaceOnUse" x="214" y="33" width="229" height="209">
    <path
      d="M214.471 33.0555H442.934V181.838L427.417 234.596C426.165 238.852 422.259 241.774 417.823 241.774H214.471V33.0555Z"
      fill="#D3CFB5" />
  </mask>
  <g mask="url(#mask0)">
    <rect x="129.342" y="4.85028" width="397.725" height="265.15" fill="url(#pattern0)" fill-opacity="0.6" />
  </g>
  <rect x="435.228" y="58.4404" width="49.3592" height="14.1026" rx="5" fill="#AF9780" />
  <path
    d="M248.982 25.7844C248.982 21.3661 252.564 17.7844 256.982 17.7844H444.695C449.113 17.7844 452.695 21.3661 452.695 25.7844V176.311C452.695 180.73 449.113 184.311 444.695 184.311H248.982V25.7844Z"
    fill="#E3DECB" />
  <mask id="mask1" mask-type="alpha" maskUnits="userSpaceOnUse" x="248" y="17" width="205" height="168">
    <path
      d="M248.982 25.7844C248.982 21.3661 252.564 17.7844 256.982 17.7844H444.695C449.113 17.7844 452.695 21.3661 452.695 25.7844V176.311C452.695 180.73 449.113 184.311 444.695 184.311H248.982V25.7844Z"
      fill="#BBB899" />
  </mask>
  <g mask="url(#mask1)">
    <rect x="480.18" y="185.928" width="245.749" height="168.144" transform="rotate(-180 480.18 185.928)"
      fill="url(#pattern1)" fill-opacity="0.2" />
  </g>
  <rect x="249.073" y="64.0815" width="203.078" height="4.23079" fill="#DAD5C0" />
  <g style="mix-blend-mode:multiply" opacity="0.5">
    <rect x="198.303" y="64.0815" width="50.7695" height="11.2821" fill="#B0855C" />
  </g>
  <rect x="373.473" y="17.7844" width="58.2036" height="166.527" fill="#FFF8E8" fill-opacity="0.5" />
  <path d="M362.913 184.311H412.276L395.351 240.898H345.988L362.913 184.311Z" fill="#FFF8E8" fill-opacity="0.5" />
  <rect x="84.0718" y="4.8503" width="132.565" height="547.182" rx="28" fill="#E9E6D9" />
  <mask id="mask2" mask-type="alpha" maskUnits="userSpaceOnUse" x="84" y="4" width="133" height="549">
    <rect x="84.0718" y="4.85033" width="132.565" height="547.182" rx="28" fill="#E9E6D9" />
  </mask>
  <g mask="url(#mask2)">
    <rect x="337.904" y="3.05176e-05" width="556.168" height="375.09" transform="rotate(90 337.904 3.05176e-05)"
      fill="url(#pattern2)" fill-opacity="0.1" />
  </g>
  <rect x="84.0718" y="64.0815" width="132.565" height="11.2821" fill="#DDD9C8" />
  <mask id="mask3" mask-type="alpha" maskUnits="userSpaceOnUse" x="109" y="26" width="83" height="82">
    <circle cx="150.354" cy="66.9019" r="40.8976" fill="white" />
  </mask>
  <g mask="url(#mask3)">
    <ellipse cx="152.058" cy="65.1977" rx="40.8976" ry="40.8976" fill="white" />
    <ellipse cx="134.166" cy="66.0498" rx="16.1886" ry="16.1886" fill="#1F031C" />
    <rect x="108.323" y="22.6347" width="87.3054" height="35.5689" fill="#44433C" />
  </g>
  <path d="M281.317 4.8503H430.06L426.826 17.7844H284.551L281.317 4.8503Z" fill="#D5CFBC" />
  <defs>
    <pattern id="pattern0" patternContentUnits="objectBoundingBox" width="1" height="1">
      <use xlink:href="#image0" transform="scale(0.00163399 0.00245098)" />
    </pattern>
    <pattern id="pattern1" patternContentUnits="objectBoundingBox" width="1" height="1">
      <use xlink:href="#image1" transform="translate(-0.00869092) scale(0.000525507 0.000768049)" />
    </pattern>
    <pattern id="pattern2" patternContentUnits="objectBoundingBox" width="1" height="1">
      <use xlink:href="#image1" transform="translate(-0.00141106) scale(0.000517987 0.000768049)" />
    </pattern>
  </defs>
</svg>
