<svg width="54" height="54" viewBox="0 0 54 54" fill="none" xmlns="http://www.w3.org/2000/svg">
  <path
    d="M44.9637 50.49H9.03634C7.57067 50.49 6.16502 49.9078 5.12863 48.8714C4.09225 47.835 3.51001 46.4294 3.51001 44.9637V9.02398C3.51001 7.56158 4.09094 6.15908 5.12501 5.12501C6.15908 4.09094 7.56158 3.51001 9.02398 3.51001H44.9637C46.4294 3.51001 47.835 4.09225 48.8714 5.12863C49.9078 6.16502 50.49 7.57067 50.49 9.03634V44.9637C50.4867 46.4283 49.9035 47.8321 48.8678 48.8678C47.8321 49.9035 46.4283 50.4867 44.9637 50.49ZM9.02398 8.45527C8.87414 8.45843 8.73131 8.51936 8.62533 8.62534C8.51936 8.73131 8.45843 8.87414 8.45527 9.02398V44.9637C8.45527 45.1178 8.51649 45.2656 8.62546 45.3745C8.73443 45.4835 8.88223 45.5448 9.03634 45.5448H44.9637C45.1178 45.5448 45.2656 45.4835 45.3746 45.3745C45.4835 45.2656 45.5448 45.1178 45.5448 44.9637V9.03634C45.5448 8.88223 45.4835 8.73443 45.3746 8.62546C45.2656 8.51649 45.1178 8.45527 44.9637 8.45527H9.02398Z"
    fill="#000000" />
  <path
    d="M38.07 50.49C37.4255 50.49 36.8075 50.2295 36.3517 49.7658C35.896 49.3021 35.64 48.6732 35.64 48.0174V5.98264C35.64 5.32686 35.896 4.69793 36.3517 4.23422C36.8075 3.77052 37.4255 3.51001 38.07 3.51001C38.7145 3.51001 39.3326 3.77052 39.7883 4.23422C40.244 4.69793 40.5 5.32686 40.5 5.98264V48.0174C40.5 48.6732 40.244 49.3021 39.7883 49.7658C39.3326 50.2295 38.7145 50.49 38.07 50.49Z"
    fill="#000000" />
</svg>
