<svg width="48" height="48" viewBox="0 0 48 48" fill="none" xmlns="http://www.w3.org/2000/svg">
  <path fill-rule="evenodd" clip-rule="evenodd"
    d="M23.9999 2.3999C12.0897 2.3999 2.3999 12.0897 2.3999 23.9999C2.3999 35.9101 12.0897 45.5999 23.9999 45.5999C35.9101 45.5999 45.5999 35.9101 45.5999 23.9999C45.5999 12.0897 35.9101 2.3999 23.9999 2.3999ZM23.9999 6.7199C30.94 6.7199 36.921 10.8412 39.6685 16.7596C39.0013 16.4438 38.3555 16.0844 37.7353 15.6839L37.7299 15.6805C36.8478 15.124 35.8471 14.4928 34.5817 14.0164C33.1367 13.4656 31.5577 13.1999 29.7563 13.1999C27.9549 13.1999 26.3759 13.4656 24.9309 14.0142C23.6709 14.4929 22.6733 15.1208 21.7685 15.6904L21.7513 15.7012L21.6989 15.734C20.9047 16.2321 20.2143 16.6651 19.3689 16.9842C18.4055 17.3493 17.3601 17.5199 16.0727 17.5199C14.7875 17.5199 13.7421 17.3493 12.7809 16.9842C11.9169 16.6581 11.2084 16.2109 10.3919 15.6925C10.0441 15.4744 9.6575 15.2433 9.2687 15.0165C12.3078 10.0506 17.764 6.7199 23.9999 6.7199ZM23.9999 41.2799C14.4721 41.2799 6.7199 33.5277 6.7199 23.9999C6.7199 22.2503 6.98558 20.5655 7.47158 18.9736C7.54911 19.0214 7.6257 19.0674 7.70254 19.1135L7.7026 19.1135C7.82698 19.1881 7.95203 19.2632 8.08286 19.3473C8.97062 19.9089 9.97502 20.5439 11.2494 21.0234C12.6945 21.5742 14.2713 21.8399 16.0727 21.8399C17.872 21.8399 19.4509 21.5742 20.9003 21.0256C22.1602 20.5469 23.1578 19.919 24.0627 19.3494L24.0798 19.3386L24.1327 19.3055L24.1327 19.3055C24.9268 18.8075 25.617 18.3746 26.4623 18.0534C27.4235 17.6905 28.4689 17.5199 29.7563 17.5199C31.0437 17.5199 32.0891 17.6905 33.0503 18.0556C33.9121 18.3796 34.6163 18.8245 35.4565 19.3559L35.462 19.3594C36.3441 19.9158 37.3448 20.5471 38.6101 21.0256C39.3942 21.3237 40.2258 21.5202 41.1006 21.6541C41.2065 22.4253 41.2799 23.2029 41.2799 23.9999C41.2799 33.5277 33.5277 41.2799 23.9999 41.2799ZM16.4399 30.4799C18.2293 30.4799 19.6799 29.0293 19.6799 27.2399C19.6799 25.4505 18.2293 23.9999 16.4399 23.9999C14.6505 23.9999 13.1999 25.4505 13.1999 27.2399C13.1999 29.0293 14.6505 30.4799 16.4399 30.4799ZM34.7999 27.2399C34.7999 29.0293 33.3493 30.4799 31.5599 30.4799C29.7705 30.4799 28.3199 29.0293 28.3199 27.2399C28.3199 25.4505 29.7705 23.9999 31.5599 23.9999C33.3493 23.9999 34.7999 25.4505 34.7999 27.2399Z"
    fill="#606368" />
</svg>
