<svg width="48" height="48" viewBox="0 0 48 48" fill="none" xmlns="http://www.w3.org/2000/svg">
  <path fill-rule="evenodd" clip-rule="evenodd"
    d="M12.6999 2.3999H34.2999C36.6824 2.3999 38.6199 4.33742 38.6199 6.7199V41.2799C38.6199 43.6624 36.6824 45.5999 34.2999 45.5999H12.6999C10.3174 45.5999 8.37988 43.6624 8.37988 41.2799V6.7199C8.37988 4.33742 10.3174 2.3999 12.6999 2.3999ZM12.6999 6.7199V41.2799H34.3042L34.2999 6.7199H12.6999ZM25.6599 36.9599C25.6599 38.1528 24.6928 39.1199 23.4999 39.1199C22.3069 39.1199 21.3399 38.1528 21.3399 36.9599C21.3399 35.7669 22.3069 34.7999 23.4999 34.7999C24.6928 34.7999 25.6599 35.7669 25.6599 36.9599Z"
    fill="#606368" />
</svg>
