<svg width="200" height="200" viewBox="0 0 200 200" fill="none" xmlns="http://www.w3.org/2000/svg">
  <path fill-rule="evenodd" clip-rule="evenodd"
    d="M100 114.142L168.929 183.071C172.834 186.976 179.166 186.976 183.071 183.071C186.976 179.166 186.976 172.834 183.071 168.929L114.142 100L183.071 31.0711C186.976 27.1658 186.976 20.8342 183.071 16.9289C179.166 13.0237 172.834 13.0237 168.929 16.9289L100 85.8578L31.0711 16.9289C27.1659 13.0237 20.8342 13.0237 16.929 16.9289C13.0237 20.8342 13.0237 27.1658 16.929 31.0711L85.8579 100L16.9289 168.929C13.0237 172.834 13.0237 179.166 16.9289 183.071C20.8342 186.976 27.1658 186.976 31.0711 183.071L100 114.142Z"
    fill="#606368" />
</svg>
