<svg width="14" height="14" viewBox="0 0 14 14" fill="none" xmlns="http://www.w3.org/2000/svg">
<circle cx="7" cy="7" r="7" fill="url(#paint0_linear)"/>
<path fill-rule="evenodd" clip-rule="evenodd" d="M7 12.9756C10.3002 12.9756 12.9756 10.3002 12.9756 7C12.9756 3.69976 10.3002 1.02439 7 1.02439C3.69976 1.02439 1.02439 3.69976 1.02439 7C1.02439 10.3002 3.69976 12.9756 7 12.9756ZM7 14C10.866 14 14 10.866 14 7C14 3.13401 10.866 0 7 0C3.13401 0 0 3.13401 0 7C0 10.866 3.13401 14 7 14Z" fill="black" fill-opacity="0.1"/>
<path d="M4.975 4.45203C7.2303 2.53739 8.62905 3.05745 9.11864 3.57319C9.27604 4.21572 8.98755 4.15017 8.27948 4.59606C7.5714 5.04195 7.44031 5.61893 7.17813 6.77288C6.91595 7.92684 6.20787 8.37273 5.63089 8.24164C5.05391 8.11055 4.4377 9.48745 4.14921 9.4219C3.28374 9.22527 3.19189 8.29425 3.19189 8.29425C3.19189 8.29425 2.71969 6.36668 4.975 4.45203Z" fill="white"/>
<path d="M8.72536 5.30413C9.49898 4.56975 9.91856 4.05832 10.43 4.4779C11.1971 5.10727 11.6444 6.87749 9.7353 8.87079C7.3489 11.3624 5.68351 10.6806 5.39502 10.6151C5.10653 10.5496 4.37215 9.77594 5.08022 9.33005C6.19978 8.62504 6.65376 9.0808 7.55847 7.76944C8.53807 6.34953 7.95175 6.03851 8.72536 5.30413Z" fill="white"/>
<defs>
<linearGradient id="paint0_linear" x1="-7.82312e-08" y1="6.99999" x2="14" y2="6.99999" gradientUnits="userSpaceOnUse">
<stop stop-color="#FDC975"/>
<stop offset="1" stop-color="#FFE162"/>
</linearGradient>
</defs>
</svg>
