<svg width="40" height="40" viewBox="0 0 40 40" fill="none" xmlns="http://www.w3.org/2000/svg">
  <path fill-rule="evenodd" clip-rule="evenodd"
    d="M2.5 20.1C2.5 18.9954 3.39543 18.1 4.5 18.1H35.5C36.6046 18.1 37.5 18.9954 37.5 20.1C37.5 21.2045 36.6046 22.1 35.5 22.1H4.5C3.39543 22.1 2.5 21.2045 2.5 20.1Z"
    fill="#B0865B" />
  <path fill-rule="evenodd" clip-rule="evenodd"
    d="M20 37.4C18.8954 37.4 18 36.5046 18 35.4L18 4.60002C18 3.49545 18.8954 2.60002 20 2.60002C21.1046 2.60002 22 3.49545 22 4.60002L22 35.4C22 36.5046 21.1046 37.4 20 37.4Z"
    fill="#B0865B" />
</svg>
