<svg width="48" height="48" viewBox="0 0 48 48" fill="none" xmlns="http://www.w3.org/2000/svg">
  <g clip-path="url(#clip0)">
    <path
      d="M26 28.0001H18C17.4696 28.0001 16.9609 28.2108 16.5858 28.5859C16.2107 28.961 16 29.4697 16 30.0001C16 30.5306 16.2107 31.0393 16.5858 31.4143C16.9609 31.7894 17.4696 32.0001 18 32.0001H26C26.5304 32.0001 27.0391 31.7894 27.4142 31.4143C27.7893 31.0393 28 30.5306 28 30.0001C28 29.4697 27.7893 28.961 27.4142 28.5859C27.0391 28.2108 26.5304 28.0001 26 28.0001ZM34 8.00012H31.64C31.2274 6.83302 30.4639 5.82212 29.4541 5.106C28.4444 4.38988 27.2379 4.0036 26 4.00012H22C20.7621 4.0036 19.5556 4.38988 18.5459 5.106C17.5361 5.82212 16.7726 6.83302 16.36 8.00012H14C12.4087 8.00012 10.8826 8.63226 9.75736 9.75748C8.63214 10.8827 8 12.4088 8 14.0001V38.0001C8 39.5914 8.63214 41.1175 9.75736 42.2428C10.8826 43.368 12.4087 44.0001 14 44.0001H34C35.5913 44.0001 37.1174 43.368 38.2426 42.2428C39.3679 41.1175 40 39.5914 40 38.0001V14.0001C40 12.4088 39.3679 10.8827 38.2426 9.75748C37.1174 8.63226 35.5913 8.00012 34 8.00012ZM20 10.0001C20 9.46969 20.2107 8.96098 20.5858 8.58591C20.9609 8.21084 21.4696 8.00012 22 8.00012H26C26.5304 8.00012 27.0391 8.21084 27.4142 8.58591C27.7893 8.96098 28 9.46969 28 10.0001V12.0001H20V10.0001ZM36 38.0001C36 38.5306 35.7893 39.0393 35.4142 39.4143C35.0391 39.7894 34.5304 40.0001 34 40.0001H14C13.4696 40.0001 12.9609 39.7894 12.5858 39.4143C12.2107 39.0393 12 38.5306 12 38.0001V14.0001C12 13.4697 12.2107 12.961 12.5858 12.5859C12.9609 12.2108 13.4696 12.0001 14 12.0001H16V14.0001C16 14.5306 16.2107 15.0393 16.5858 15.4143C16.9609 15.7894 17.4696 16.0001 18 16.0001H30C30.5304 16.0001 31.0391 15.7894 31.4142 15.4143C31.7893 15.0393 32 14.5306 32 14.0001V12.0001H34C34.5304 12.0001 35.0391 12.2108 35.4142 12.5859C35.7893 12.961 36 13.4697 36 14.0001V38.0001ZM30 20.0001H18C17.4696 20.0001 16.9609 20.2108 16.5858 20.5859C16.2107 20.961 16 21.4697 16 22.0001C16 22.5306 16.2107 23.0393 16.5858 23.4143C16.9609 23.7894 17.4696 24.0001 18 24.0001H30C30.5304 24.0001 31.0391 23.7894 31.4142 23.4143C31.7893 23.0393 32 22.5306 32 22.0001C32 21.4697 31.7893 20.961 31.4142 20.5859C31.0391 20.2108 30.5304 20.0001 30 20.0001Z"
      fill="#B0865B" />
  </g>
  <defs>
    <clipPath id="clip0">
      <rect width="48" height="48" fill="white" />
    </clipPath>
  </defs>
</svg>
