<svg width="48" height="48" viewBox="0 0 48 48" fill="none" xmlns="http://www.w3.org/2000/svg">
  <path fill-rule="evenodd" clip-rule="evenodd"
    d="M8.1288 7.29086C7.6655 7.29086 7.29086 7.66666 7.29086 8.12751V39.6813C7.29086 40.1434 7.66544 40.5179 8.12751 40.5179H39.6813C40.1434 40.5179 40.5179 40.1434 40.5179 39.6813V26.1753C40.5179 24.9211 41.5347 23.9044 42.7889 23.9044C44.0431 23.9044 45.0598 24.9211 45.0598 26.1753V39.6813C45.0598 42.6517 42.6517 45.0598 39.6813 45.0598H8.12751C5.15705 45.0598 2.74902 42.6517 2.74902 39.6813V8.12751C2.74902 5.15583 5.15956 2.74902 8.1288 2.74902H21.6335C22.8877 2.74902 23.9044 3.76575 23.9044 5.01994C23.9044 6.27413 22.8877 7.29086 21.6335 7.29086H8.1288Z"
    fill="#606368" />
  <path
    d="M44.2823 3.51055C44.0665 3.29183 43.8054 3.12162 43.5169 3.01152C43.2284 2.90142 42.9192 2.85403 42.6104 2.87257H30.1717C29.5804 2.87257 29.0134 3.10435 28.5954 3.51691C28.1773 3.92947 27.9425 4.48903 27.9425 5.07248C27.9425 5.65594 28.1773 6.21549 28.5954 6.62806C29.0134 7.04062 29.5804 7.2724 30.1717 7.2724H37.3273L22.1801 22.2098C21.7649 22.622 21.5319 23.1795 21.5319 23.7607C21.5319 24.3419 21.7649 24.8995 22.1801 25.3117C22.3875 25.5175 22.6341 25.6809 22.9057 25.7923C23.1774 25.9036 23.4686 25.9609 23.7628 25.9606C24.3531 25.9582 24.9182 25.7248 25.3344 25.3117L40.4816 10.3303V17.381C40.4816 17.9644 40.7164 18.524 41.1345 18.9366C41.5525 19.3491 42.1195 19.5809 42.7107 19.5809C43.302 19.5809 43.8689 19.3491 44.287 18.9366C44.705 18.524 44.9399 17.9644 44.9399 17.381V5.20448C44.9399 5.20448 44.9399 5.13848 44.9399 5.10548C44.9446 4.80965 44.8888 4.51593 44.7758 4.24189C44.6628 3.96784 44.495 3.7191 44.2823 3.51055Z"
    fill="#606368" />
</svg>
