<svg width="48" height="49" viewBox="0 0 48 49" fill="none" xmlns="http://www.w3.org/2000/svg">
  <path fill-rule="evenodd" clip-rule="evenodd"
    d="M15.9305 4.18176C18.497 3.11869 21.2477 2.57153 24.0257 2.57153C29.6359 2.57153 35.0165 4.80021 38.9835 8.76729C42.9506 12.7344 45.1793 18.1149 45.1793 23.7252C45.1793 29.3355 42.9506 34.716 38.9835 38.6831C35.0165 42.6501 29.6359 44.8788 24.0257 44.8788H4.98737C4.56853 44.8965 4.15389 44.7892 3.79609 44.5708C3.43829 44.3524 3.15347 44.0325 2.97777 43.6519C2.81578 43.2667 2.77152 42.8421 2.85058 42.4317C2.92964 42.0214 3.12847 41.6436 3.422 41.3462L7.65273 37.1154C4.54482 33.347 2.85351 28.6098 2.872 23.7252C2.872 18.1149 5.10068 12.7344 9.06776 8.76729C11.0321 6.803 13.364 5.24483 15.9305 4.18176ZM10.0854 40.6481H24.0257C27.9407 40.645 31.7335 39.2846 34.758 36.7986C37.7825 34.3127 39.8515 30.855 40.6125 27.0146C41.3735 23.1742 40.7794 19.1888 38.9314 15.7373C37.0835 12.2859 34.096 9.5819 30.478 8.08611C26.8599 6.59031 22.8352 6.39524 19.0895 7.53412C15.3438 8.673 12.1088 11.0754 9.93569 14.3319C7.7626 17.5885 6.78587 21.4978 7.17188 25.3938C7.5579 29.2897 9.2828 32.9313 12.0527 35.6981C12.4467 36.0945 12.6678 36.6306 12.6678 37.1895C12.6678 37.7483 12.4467 38.2845 12.0527 38.6808L10.0854 40.6481ZM13.6171 21.5685C13.1708 21.1222 12.92 20.5169 12.92 19.8858C12.92 19.2546 13.1708 18.6493 13.6171 18.203C14.0634 17.7567 14.6687 17.506 15.2998 17.506C15.931 17.506 16.5363 17.7567 16.9826 18.203C17.4289 18.6493 17.6796 19.2546 17.6796 19.8858C17.6796 20.5169 17.4289 21.1222 16.9826 21.5685C16.5363 22.0148 15.931 22.2655 15.2998 22.2655C14.6687 22.2655 14.0634 22.0148 13.6171 21.5685ZM31.0688 21.5685C30.6225 21.1222 30.3718 20.5169 30.3718 19.8858C30.3718 19.2546 30.6225 18.6493 31.0688 18.203C31.5151 17.7567 32.1204 17.506 32.7516 17.506C33.3827 17.506 33.988 17.7567 34.4343 18.203C34.8806 18.6493 35.1314 19.2546 35.1314 19.8858C35.1314 20.5169 34.8806 21.1222 34.4343 21.5685C33.988 22.0148 33.3827 22.2655 32.7516 22.2655C32.1204 22.2655 31.5151 22.0148 31.0688 21.5685ZM29.1769 25.4386H31.5617C31.6155 25.4385 31.6687 25.4494 31.7182 25.4706C31.7676 25.4917 31.8123 25.5227 31.8494 25.5617C31.8865 25.6006 31.9153 25.6467 31.934 25.6972C31.9527 25.7476 31.961 25.8013 31.9583 25.8551C31.7402 30.0346 28.2647 33.3712 24.0257 33.3712C19.7867 33.3712 16.3112 30.0346 16.0931 25.8551C16.0904 25.8013 16.0987 25.7476 16.1174 25.6972C16.1361 25.6467 16.1649 25.6006 16.202 25.5617C16.2391 25.5227 16.2837 25.4917 16.3332 25.4706C16.3827 25.4494 16.4359 25.4385 16.4897 25.4386H18.8745C19.0827 25.4386 19.2612 25.5973 19.276 25.8055C19.4595 28.2596 21.522 30.1982 24.0257 30.1982C26.5294 30.1982 28.587 28.2596 28.7753 25.8055C28.7902 25.5973 28.9687 25.4386 29.1769 25.4386Z"
    fill="#606368" />
</svg>
