<svg width="64" height="64" viewBox="0 0 64 64" fill="none" xmlns="http://www.w3.org/2000/svg">
  <path
    d="M43.1312 23.5875C43.5 23.5875 43.8688 23.6 44.2313 23.6188C42.7062 15.575 34.3375 9.42502 24.2375 9.42502C13.0625 9.42502 4 16.9625 4 26.2625C4 31.3313 6.725 35.9 10.9937 38.9875C11.1698 39.1118 11.3134 39.2766 11.4124 39.4681C11.5114 39.6595 11.5629 39.872 11.5625 40.0875C11.5625 40.2375 11.5312 40.375 11.4937 40.5188C11.15 41.7875 10.6063 43.8188 10.5813 43.9125C10.5375 44.075 10.475 44.2375 10.475 44.4063C10.475 44.775 10.775 45.0813 11.15 45.0813C11.2937 45.0813 11.4125 45.025 11.5375 44.9563L15.9688 42.4C16.3 42.2063 16.6563 42.0875 17.0438 42.0875C17.2438 42.0875 17.4438 42.1188 17.6375 42.175C19.7063 42.7688 21.9375 43.1 24.2437 43.1C24.6187 43.1 24.9875 43.0938 25.3563 43.075C24.9125 41.7625 24.675 40.3813 24.675 38.95C24.675 30.4625 32.9375 23.5875 43.1312 23.5875ZM30.9875 18.1813C32.475 18.1813 33.6875 19.3875 33.6875 20.875C33.6875 22.3625 32.4812 23.5688 30.9875 23.5688C29.5 23.5688 28.2875 22.3625 28.2875 20.875C28.2875 19.3875 29.5 18.1813 30.9875 18.1813ZM17.4937 23.5688C16.0062 23.5688 14.7937 22.3625 14.7937 20.875C14.7937 19.3875 16 18.1813 17.4937 18.1813C18.9875 18.1813 20.1938 19.3875 20.1938 20.875C20.1938 22.3625 18.9812 23.5688 17.4937 23.5688ZM54.1688 49.5438C57.725 46.9688 59.9938 43.1688 59.9938 38.9375C59.9938 31.1875 52.4437 24.9063 43.125 24.9063C33.8125 24.9063 26.2563 31.1875 26.2563 38.9375C26.2563 46.6875 33.8062 52.9688 43.125 52.9688C45.05 52.9688 46.9125 52.6938 48.6312 52.2C48.7937 52.15 48.9562 52.125 49.125 52.125C49.45 52.125 49.7437 52.225 50.0187 52.3813L53.7125 54.5063C53.8188 54.5688 53.9187 54.6125 54.0375 54.6125C54.1116 54.6131 54.1851 54.5991 54.2537 54.5712C54.3224 54.5433 54.3848 54.5021 54.4375 54.45C54.4896 54.3973 54.5308 54.3349 54.5587 54.2662C54.5865 54.1976 54.6006 54.1241 54.6 54.05C54.6 53.9125 54.5438 53.775 54.5125 53.6375C54.4938 53.5625 54.0375 51.8688 53.75 50.8063C53.7188 50.6875 53.6937 50.5688 53.6937 50.45C53.7 50.0813 53.8875 49.75 54.1688 49.5438ZM37.5125 36.7C36.2687 36.7 35.2625 35.6938 35.2625 34.4563C35.2625 33.2188 36.2687 32.2125 37.5125 32.2125C38.7563 32.2125 39.7625 33.2188 39.7625 34.4563C39.7625 35.6938 38.75 36.7 37.5125 36.7ZM48.7562 36.7C47.5125 36.7 46.5062 35.6938 46.5062 34.4563C46.5062 33.2188 47.5125 32.2125 48.7562 32.2125C50 32.2125 51.0062 33.2188 51.0062 34.4563C51.0033 35.0515 50.7651 35.6214 50.3436 36.0418C49.9221 36.4621 49.3515 36.6987 48.7562 36.7Z"
    fill="white" />
</svg>
