<svg width="50" height="52" viewBox="0 0 50 52" fill="none" xmlns="http://www.w3.org/2000/svg">
  <path fill-rule="evenodd" clip-rule="evenodd"
    d="M13.4476 12.68C25.244 2.66546 35.8562 4.85066 39.4502 8.63667C39.7561 8.9589 39.955 9.3438 40.048 9.74752C40.7748 9.96593 41.4375 10.3489 42.0345 10.8386C47.266 15.1305 48.8933 25.5977 38.8011 36.1349C32.608 42.6011 27.1473 45.1524 22.8254 45.917C20.6783 46.2969 18.8815 46.2227 17.5029 46.0212C16.8163 45.9209 16.2435 45.7904 15.7992 45.6759C15.5885 45.6216 15.4051 45.5704 15.267 45.5319L15.2506 45.5273C15.1776 45.507 15.1245 45.4922 15.0799 45.4802C15.0585 45.4745 15.0427 45.4704 15.0311 45.4674C15.0207 45.4648 15.0161 45.4637 15.0161 45.4637L15.0163 45.4638C14.0633 45.2473 13.1977 44.6233 12.5996 44.0838C11.9345 43.484 11.2573 42.6783 10.7764 41.7346C10.672 41.5298 10.5727 41.3099 10.484 41.0769C7.90145 40.1859 6.238 38.7796 5.20642 37.3369C4.58074 36.4619 4.22682 35.628 4.02735 34.9884C3.92755 34.6685 3.86561 34.3947 3.82723 34.1846C3.81182 34.1002 3.80015 34.0258 3.79132 33.9623C3.78853 33.9488 3.78564 33.9345 3.78265 33.9196C3.76116 33.8118 3.73488 33.6672 3.70794 33.4884C3.65407 33.131 3.59733 32.6353 3.57101 32.0211C3.51835 30.7929 3.58714 29.0857 4.04671 27.063C4.97423 22.9806 7.46066 17.7626 13.4476 12.68ZM15.3549 40.0238C15.3833 39.9353 15.4068 39.8443 15.4252 39.751C15.4959 39.391 15.4823 39.034 15.3978 38.7005C17.0984 37.648 18.2846 37.2731 19.5939 36.8592C20.1497 36.6835 20.7277 36.5008 21.3767 36.2563C23.7136 35.3758 25.7699 33.9723 28.2503 30.3771C30.91 26.5219 31.4954 24.0529 31.8998 22.1191C32.0929 21.1954 32.1951 20.712 32.4122 20.2263C32.6044 19.7964 32.9377 19.2671 33.7128 18.5313C34.1499 18.1163 34.5403 17.7393 34.9044 17.3877C35.3917 16.9171 35.8318 16.492 36.2739 16.0824C37.0265 15.385 37.5915 14.9182 38.0527 14.6277C38.2736 14.4887 38.4317 14.4154 38.537 14.3781C38.5877 14.3601 38.6223 14.3518 38.6426 14.348C38.6528 14.3461 38.6597 14.3453 38.6637 14.3449C38.6648 14.3448 38.6656 14.3447 38.6663 14.3447C38.6701 14.3457 38.6773 14.3479 38.6882 14.3523C38.7262 14.3675 38.8264 14.4154 38.9901 14.5496C41.366 16.4988 44.1739 23.5857 35.3346 32.8148C29.6956 38.7025 25.1116 40.638 21.9892 41.1904C19.3157 41.6634 17.5614 41.1828 16.5429 40.9037C16.4171 40.8693 16.3026 40.8379 16.1989 40.8118C16.1926 40.8081 16.1855 40.8039 16.1777 40.7991C16.0924 40.747 15.9646 40.6549 15.8145 40.5195C15.6489 40.3702 15.4915 40.2003 15.3549 40.0238ZM16.2387 40.8331C16.2387 40.8332 16.2363 40.8321 16.2316 40.8298C16.2363 40.8318 16.2386 40.833 16.2387 40.8331ZM11.1091 36.1522C10.0346 35.6265 9.44361 35.0103 9.11097 34.545C8.82785 34.1491 8.68237 33.7924 8.60965 33.5593C8.57334 33.4429 8.55598 33.3597 8.54909 33.322C8.54868 33.3197 8.54831 33.3177 8.54797 33.3158L8.53656 33.175L8.49507 33.0057C8.49402 33.0007 8.49229 32.9925 8.49001 32.9811C8.48267 32.9443 8.46957 32.8742 8.45434 32.7731C8.42385 32.5708 8.38504 32.2457 8.3666 31.8155C8.32972 30.9551 8.37451 29.6797 8.72741 28.1265C9.42483 25.0569 11.3589 20.7497 16.5541 16.3392C25.2237 8.97914 31.8863 9.84124 34.6964 11.1218C34.1204 11.5583 33.5571 12.0559 33.0114 12.5615C32.5513 12.9879 32.0361 13.485 31.5062 13.9962C31.1428 14.3469 30.7724 14.7042 30.4081 15.0501C29.2653 16.1349 28.5236 17.1638 28.0303 18.2671C27.5944 19.2421 27.3962 20.1975 27.2365 20.9678C27.2246 21.0251 27.213 21.0814 27.2014 21.1366C26.8862 22.6441 26.4966 24.4663 24.2993 27.6513C22.294 30.558 20.982 31.2756 19.6842 31.7646C19.356 31.8883 18.969 32.0104 18.5303 32.1488C17.0745 32.608 15.0491 33.247 12.7083 34.7211C12.0705 35.1227 11.5298 35.6024 11.1091 36.1522Z"
    fill="#606368" />
</svg>
