<svg width="54" height="54" viewBox="0 0 54 54" fill="none" xmlns="http://www.w3.org/2000/svg">
  <path fill-rule="evenodd" clip-rule="evenodd"
    d="M0 12.15C0 8.86939 2.65639 6.20996 5.93321 6.20996H48.0051C51.2819 6.20996 53.9383 8.86939 53.9383 12.15V41.85C53.9383 45.1305 51.2819 47.79 48.0051 47.79H5.93321C2.65639 47.79 0 45.1305 0 41.85V12.15ZM5.93321 11.61C5.63532 11.61 5.39383 11.8517 5.39383 12.15V41.85C5.39383 42.1482 5.63532 42.39 5.93321 42.39H48.0051C48.303 42.39 48.5445 42.1482 48.5445 41.85V12.15C48.5445 11.8517 48.303 11.61 48.0051 11.61H5.93321Z"
    fill="#B0865B" />
  <path
    d="M17.4502 30.0875C16.0764 30.0875 14.7334 29.6797 13.5911 28.9155C12.4488 28.1514 11.5585 27.0653 11.0328 25.7946C10.507 24.5239 10.3695 23.1256 10.6375 21.7767C10.9055 20.4277 11.5671 19.1886 12.5385 18.216C13.51 17.2435 14.7477 16.5812 16.0951 16.3128C17.4425 16.0445 18.8392 16.1822 20.1084 16.7085C21.3777 17.2349 22.4625 18.1262 23.2258 19.2698C23.9891 20.4134 24.3965 21.7579 24.3965 23.1333C24.3965 24.9777 23.6646 26.7465 22.362 28.0507C21.0593 29.3548 19.2925 30.0875 17.4502 30.0875ZM17.4502 20.9298C17.0121 20.9298 16.5838 21.0601 16.2196 21.304C15.8555 21.548 15.5719 21.8947 15.4047 22.3002C15.2376 22.7057 15.1945 23.1517 15.2808 23.5818C15.3672 24.0118 15.5791 24.4066 15.8898 24.7159C16.2004 25.0252 16.5958 25.2353 17.0258 25.3195C17.4559 25.4036 17.9012 25.358 18.3053 25.1885C18.7094 25.019 19.0542 24.7332 19.2959 24.3674C19.5376 24.0015 19.6654 23.572 19.6631 23.1333C19.6631 22.5458 19.43 21.9823 19.015 21.5669C18.6 21.1514 18.0371 20.918 17.4502 20.918V20.9298Z"
    fill="#B0865B" />
  <path
    d="M25.7413 45.0134C25.1094 45.0134 24.5034 44.76 24.0566 44.3088C23.6098 43.8576 23.3588 43.2457 23.3588 42.6077C23.1758 41.1558 22.4748 39.821 21.3872 38.8536C20.2995 37.8862 18.8998 37.3525 17.4503 37.3525C16.0009 37.3525 14.6011 37.8862 13.5135 38.8536C12.4258 39.821 11.7248 41.1558 11.5418 42.6077C11.5418 43.2457 11.2908 43.8576 10.844 44.3088C10.3972 44.76 9.79119 45.0134 9.15932 45.0134C8.52745 45.0134 7.92146 44.76 7.47466 44.3088C7.02787 43.8576 6.77686 43.2457 6.77686 42.6077C7.02818 39.9249 8.26129 37.4333 10.2351 35.6198C12.209 33.8063 14.7817 32.8013 17.4503 32.8013C20.1189 32.8013 22.6916 33.8063 24.6655 35.6198C26.6393 37.4333 27.8724 39.9249 28.1238 42.6077C28.1238 43.2457 27.8727 43.8576 27.4259 44.3088C26.9792 44.76 26.3732 45.0134 25.7413 45.0134Z"
    fill="#B0865B" />
  <path
    d="M43.2997 22.2851H32.2408C31.6147 22.2851 31.0143 22.0349 30.5715 21.5896C30.1288 21.1442 29.8801 20.5403 29.8801 19.9105C29.8801 19.2807 30.1288 18.6767 30.5715 18.2314C31.0143 17.7861 31.6147 17.5359 32.2408 17.5359H43.2997C43.9258 17.5359 44.5263 17.7861 44.969 18.2314C45.4117 18.6767 45.6604 19.2807 45.6604 19.9105C45.6604 20.5403 45.4117 21.1442 44.969 21.5896C44.5263 22.0349 43.9258 22.2851 43.2997 22.2851Z"
    fill="#B0865B" />
  <path
    d="M43.2997 30.0873H32.2408C31.6147 30.0873 31.0143 29.8371 30.5715 29.3918C30.1288 28.9465 29.8801 28.3425 29.8801 27.7127C29.8801 27.0829 30.1288 26.479 30.5715 26.0336C31.0143 25.5883 31.6147 25.3381 32.2408 25.3381H43.2997C43.9258 25.3381 44.5263 25.5883 44.969 26.0336C45.4117 26.479 45.6604 27.0829 45.6604 27.7127C45.6604 28.3425 45.4117 28.9465 44.969 29.3918C44.5263 29.8371 43.9258 30.0873 43.2997 30.0873Z"
    fill="#B0865B" />
</svg>
