<svg width="54" height="54" viewBox="0 0 54 54" fill="none" xmlns="http://www.w3.org/2000/svg">
<path d="M44.9637 50.4898H9.03634C7.57067 50.4898 6.16502 49.9075 5.12863 48.8711C4.09225 47.8348 3.51001 46.4291 3.51001 44.9634V9.02374C3.51001 7.56134 4.09094 6.15884 5.12501 5.12477C6.15908 4.0907 7.56158 3.50977 9.02398 3.50977H44.9637C46.4294 3.50977 47.835 4.092 48.8714 5.12839C49.9078 6.16478 50.49 7.57042 50.49 9.0361V44.9634C50.4867 46.4281 49.9035 47.8318 48.8678 48.8675C47.8321 49.9032 46.4283 50.4865 44.9637 50.4898ZM9.02398 8.45503C8.87414 8.45818 8.73131 8.51911 8.62533 8.62509C8.51936 8.73107 8.45843 8.8739 8.45527 9.02374V44.9634C8.45527 45.1175 8.51649 45.2653 8.62546 45.3743C8.73443 45.4833 8.88223 45.5445 9.03634 45.5445H44.9637C45.1178 45.5445 45.2656 45.4833 45.3746 45.3743C45.4835 45.2653 45.5448 45.1175 45.5448 44.9634V9.0361C45.5448 8.88199 45.4835 8.73419 45.3746 8.62522C45.2656 8.51625 45.1178 8.45503 44.9637 8.45503H9.02398Z" fill="#606368"/>
<path d="M38.0699 50.4898C37.4254 50.4898 36.8073 50.2293 36.3516 49.7655C35.8959 49.3018 35.6399 48.6729 35.6399 48.0171V5.98239C35.6399 5.32661 35.8959 4.69769 36.3516 4.23398C36.8073 3.77027 37.4254 3.50977 38.0699 3.50977C38.7144 3.50977 39.3324 3.77027 39.7882 4.23398C40.2439 4.69769 40.4999 5.32661 40.4999 5.98239V48.0171C40.4999 48.6729 40.2439 49.3018 39.7882 49.7655C39.3324 50.2293 38.7144 50.4898 38.0699 50.4898Z" fill="#606368"/>
</svg>
