<svg width="48" height="48" viewBox="0 0 48 48" fill="none" xmlns="http://www.w3.org/2000/svg">
  <path fill-rule="evenodd" clip-rule="evenodd"
    d="M24 7.67988C20.6862 7.67988 18 10.3662 18 13.6799C18 16.9936 20.6862 19.6799 24 19.6799C27.3137 19.6799 30 16.9936 30 13.6799C30 10.3662 27.3137 7.67988 24 7.67988ZM13.2 13.6799C13.2 7.71521 18.0353 2.87988 24 2.87988C29.9646 2.87988 34.8 7.71521 34.8 13.6799C34.8 19.6446 29.9646 24.4799 24 24.4799C18.0353 24.4799 13.2 19.6446 13.2 13.6799Z"
    fill="#606368" />
  <path fill-rule="evenodd" clip-rule="evenodd"
    d="M5.52002 39.1199C5.52002 31.9623 11.3224 26.1599 18.48 26.1599H29.52C36.6776 26.1599 42.48 31.9623 42.48 39.1199V41.9999C42.48 43.3254 41.4055 44.3999 40.08 44.3999C38.7545 44.3999 37.68 43.3254 37.68 41.9999V39.1199C37.68 34.6133 34.0267 30.9599 29.52 30.9599H18.48C13.9734 30.9599 10.32 34.6133 10.32 39.1199V41.9999C10.32 43.3254 9.2455 44.3999 7.92002 44.3999C6.59454 44.3999 5.52002 43.3254 5.52002 41.9999V39.1199Z"
    fill="#606368" />
</svg>
