<svg width="48" height="48" viewBox="0 0 48 48" fill="none" xmlns="http://www.w3.org/2000/svg">
<path d="M23.9999 2.3999C12.0897 2.3999 2.3999 12.0897 2.3999 23.9999C2.3999 35.9101 12.0897 45.5999 23.9999 45.5999C35.9101 45.5999 45.5999 35.9101 45.5999 23.9999C45.5999 12.0897 35.9101 2.3999 23.9999 2.3999ZM41.1309 21.8399H35.1606C34.8941 17.1122 33.5715 12.5043 31.2899 8.35502C33.9342 9.59065 36.223 11.4749 37.9436 13.8326C39.6642 16.1903 40.7606 18.9448 41.1309 21.8399ZM25.1447 6.77822C27.3803 9.72446 30.387 14.943 30.819 21.8399H17.5847C17.8849 16.2325 19.7317 10.9794 22.8789 6.77606C23.2504 6.75446 23.6219 6.7199 23.9999 6.7199C24.3865 6.7199 24.7645 6.75446 25.1447 6.77822ZM16.846 8.29022C14.7205 12.3748 13.4937 17.0058 13.2647 21.8399H6.86894C7.24212 18.9192 8.35423 16.142 10.1001 13.771C11.8459 11.4 14.1678 9.51362 16.846 8.29022ZM6.86894 26.1599H13.2928C13.5865 31.2985 14.7292 35.8324 16.6537 39.6167C14.0233 38.3767 11.7478 36.4937 10.0376 34.1417C8.32735 31.7897 7.23757 29.0445 6.86894 26.1599ZM22.8119 41.2216C19.7857 37.5539 17.9994 32.4153 17.6085 26.1599H30.8125C30.3633 32.1496 28.3998 37.3833 25.1901 41.2194C24.7969 41.2453 24.4038 41.2799 23.9999 41.2799C23.5981 41.2799 23.2072 41.2453 22.8119 41.2216ZM31.4757 39.5541C33.5385 35.679 34.7977 31.1279 35.1282 26.1599H41.1287C40.7642 29.0203 39.69 31.7442 38.0041 34.0835C36.3182 36.4229 34.0739 38.3035 31.4757 39.5541Z" fill="#606368"/>
</svg>
