<svg width="668" height="88" viewBox="0 0 668 88" fill="none" xmlns="http://www.w3.org/2000/svg">
  <rect x="1" y="1" width="666" height="86" rx="7" fill="white" stroke="#E1E3E5" stroke-width="2" />
  <path
    d="M27.964 32.012V37.052H17.94V50.212H19.956V48.448H27.964V57.996H30.036V48.448H38.072V50.212H40.088V37.052H30.036V32.012H27.964ZM19.956 46.488V39.012H27.964V46.488H19.956ZM30.036 46.488V39.012H38.072V46.488H30.036ZM44.792 36.856V38.872H49.104C50.364 43.184 52.604 46.936 55.852 50.128C52.828 52.872 48.964 54.86 44.26 56.12L45.324 57.884C50.084 56.512 54.06 54.356 57.252 51.416C60.276 54.02 64.084 56.176 68.732 57.912L69.824 56.232C65.344 54.58 61.62 52.508 58.652 49.988C61.396 47.02 63.468 43.296 64.84 38.872H69.208V36.856H58.512C57.616 34.924 56.664 33.272 55.6 31.928L53.584 32.656C54.704 33.972 55.628 35.372 56.384 36.856H44.792ZM51.092 38.872H62.74C61.564 42.736 59.744 46.012 57.252 48.728C54.34 45.928 52.296 42.652 51.092 38.872Z"
    fill="#202124" />
  <path
    d="M645.178 51.569C645.27 51.7022 645.393 51.8112 645.536 51.8864C645.679 51.9617 645.839 52.001 646 52.001C646.162 52.001 646.321 51.9617 646.465 51.8864C646.608 51.8112 646.731 51.7022 646.822 51.569L655.822 38.569C655.926 38.4191 655.988 38.2434 655.999 38.0612C656.01 37.879 655.972 37.6971 655.887 37.5354C655.802 37.3737 655.675 37.2382 655.518 37.1439C655.362 37.0495 655.183 36.9997 655 37H637C636.818 37.0008 636.64 37.0511 636.484 37.1458C636.328 37.2404 636.201 37.3756 636.117 37.537C636.032 37.6983 635.993 37.8797 636.004 38.0615C636.015 38.2434 636.075 38.4188 636.178 38.569L645.178 51.569Z"
    fill="#C6CACC" />
</svg>
