<svg width="48" height="48" viewBox="0 0 48 48" fill="none" xmlns="http://www.w3.org/2000/svg">
<path d="M23.9999 2.3999C12.2905 2.3999 2.3999 12.2905 2.3999 23.9999C2.3999 30.8881 5.83862 37.1284 11.0399 41.1157V41.2799H11.2602C14.8631 43.9691 19.276 45.5999 23.9999 45.5999C28.7238 45.5999 33.1367 43.9691 36.7396 41.2799H36.9599V41.1157C42.1612 37.1284 45.5999 30.8903 45.5999 23.9999C45.5999 12.2905 35.7093 2.3999 23.9999 2.3999ZM15.5197 38.9622C15.8381 37.5224 16.6376 36.234 17.7866 35.3096C18.9356 34.3853 20.3653 33.8802 21.8399 33.8776H26.1599C27.6344 33.8805 29.064 34.3858 30.2128 35.3101C31.3617 36.2344 32.1614 37.5225 32.4801 38.9622C29.9572 40.4245 27.0585 41.2799 23.9999 41.2799C20.9413 41.2799 18.0426 40.4245 15.5197 38.9622ZM36.1175 36.1845C35.2936 34.2229 33.9094 32.5479 32.1382 31.3692C30.367 30.1904 28.2875 29.5603 26.1599 29.5576H21.8399C19.7123 29.5603 17.6328 30.1904 15.8616 31.3692C14.0904 32.5479 12.7062 34.2229 11.8823 36.1845C8.71358 33.033 6.7199 28.7001 6.7199 23.9999C6.7199 14.632 14.632 6.7199 23.9999 6.7199C33.3678 6.7199 41.2799 14.632 41.2799 23.9999C41.2799 28.7001 39.2862 33.033 36.1175 36.1845Z" fill="#606368"/>
<path d="M23.9999 11.0398C19.0751 11.0398 15.3599 14.755 15.3599 19.6798C15.3599 24.6046 19.0751 28.3198 23.9999 28.3198C28.9247 28.3198 32.6399 24.6046 32.6399 19.6798C32.6399 14.755 28.9247 11.0398 23.9999 11.0398ZM23.9999 23.9998C21.4554 23.9998 19.6799 22.2243 19.6799 19.6798C19.6799 17.1353 21.4554 15.3598 23.9999 15.3598C26.5443 15.3598 28.3199 17.1353 28.3199 19.6798C28.3199 22.2243 26.5443 23.9998 23.9999 23.9998Z" fill="#606368"/>
</svg>
