<svg width="54" height="54" viewBox="0 0 54 54" fill="none" xmlns="http://www.w3.org/2000/svg">
  <path fill-rule="evenodd" clip-rule="evenodd"
    d="M25.2671 3.5994C26.2699 2.76016 27.73 2.76016 28.7328 3.5994L46.8228 18.7387C47.4358 19.2517 47.79 20.0099 47.79 20.8093V48.06C47.79 49.5511 46.5811 50.76 45.09 50.76H33.03C31.5388 50.76 30.33 49.5511 30.33 48.06V35.6207H23.67V48.06C23.67 49.5511 22.4611 50.76 20.97 50.76H8.90996C7.41879 50.76 6.20996 49.5511 6.20996 48.06V20.8093C6.20996 20.0099 6.56414 19.2517 7.17712 18.7387L25.2671 3.5994ZM11.61 22.0704V45.36H18.27V32.9207C18.27 31.4295 19.4788 30.2207 20.97 30.2207H33.03C34.5211 30.2207 35.73 31.4295 35.73 32.9207V45.36H42.39V22.0704L27 9.19073L11.61 22.0704Z"
    fill="#606368" />
</svg>
