<svg width="552" height="360" viewBox="0 0 552 360" fill="none" xmlns="http://www.w3.org/2000/svg">
  <path
    d="M53.4003 320.475C53.4003 320.475 52.4182 177.527 59.2941 127.903C66.17 78.2776 61.8548 16.8339 56.0314 0C56.0314 0 43.9635 42.5757 44.2091 104.37C44.4547 166.165 47.7172 192.538 47.7172 221.857C47.7172 251.176 45.2617 324.368 45.2617 324.368L53.4003 320.475Z"
    fill="#FFE162" />
  <path
    d="M51.6822 308.832C51.6822 308.832 37.299 171.285 41.1579 122.782C45.0168 74.2796 34.1417 15.5713 25.3715 0.0350647C25.3715 0.0350647 14.6367 42.1198 20.6005 101.74C26.5643 161.36 32.9489 186.295 35.8606 214.527C38.7724 242.759 42.3156 313.496 42.3156 313.496L51.6822 308.832Z"
    fill="white" />
  <path opacity="0.7"
    d="M51.6822 308.832C51.6822 308.832 37.299 171.285 41.1579 122.782C45.0168 74.2796 34.1417 15.5713 25.3715 0.0350647C25.3715 0.0350647 14.6367 42.1198 20.6005 101.74C26.5643 161.36 32.9489 186.295 35.8606 214.527C38.7724 242.759 42.3156 313.496 42.3156 313.496L51.6822 308.832Z"
    fill="#FFE162" />
  <path
    d="M30.808 327.735C30.808 327.735 25.4055 256.156 26.0019 230.274C26.5983 204.392 -9.50007 81.855 -9.50007 81.855C-9.50007 81.855 -20.34 52.3255 -17.9194 29.0737C5.62691 60.7104 21.2636 97.5179 27.6859 136.425C38.4909 201.411 36.7018 327.735 36.7018 327.735H30.808Z"
    fill="white" />
  <path opacity="0.6"
    d="M30.808 327.735C30.808 327.735 25.4055 256.156 26.0019 230.274C26.5983 204.392 -9.50007 81.855 -9.50007 81.855C-9.50007 81.855 -20.34 52.3255 -17.9194 29.0737C5.62691 60.7104 21.2636 97.5179 27.6859 136.425C38.4909 201.411 36.7018 327.735 36.7018 327.735H30.808Z"
    fill="#FFE162" />
  <path
    d="M58.5917 334.398C58.5917 334.398 62.4857 282.809 62.0998 264.257C61.7139 245.705 87.6738 157.327 87.6738 157.327C87.6738 157.327 95.4968 136.039 93.7428 119.31C76.7663 142.035 65.472 168.49 60.8018 196.466C52.9788 243.285 54.2766 334.328 54.2766 334.328L58.5917 334.398Z"
    fill="#FFE162" />
  <path
    d="M44.9808 345.2C44.9808 345.2 45.2264 251.877 49.6466 197.904C54.0668 143.93 53.7861 119.521 65.1172 92.0254C76.4484 64.53 79.1496 48.5026 84.2013 39.7701C84.2013 39.7701 81.5351 103.178 70.8003 133.584C55.0967 202.869 48.0269 273.829 49.7517 344.849L44.9808 345.2Z"
    fill="white" />
  <path opacity="0.6"
    d="M44.9808 345.2C44.9808 345.2 45.2264 251.877 49.6466 197.904C54.0668 143.93 53.7861 119.521 65.1172 92.0254C76.4484 64.53 79.1496 48.5026 84.2013 39.7701C84.2013 39.7701 81.5351 103.178 70.8003 133.584C55.0967 202.869 48.0269 273.829 49.7517 344.849L44.9808 345.2Z"
    fill="#FFE162" />
  <path
    d="M48.0678 320.546C48.0678 320.546 33.6143 231.817 19.196 180.859C4.77772 129.902 -7.21991 112.822 -27.4266 87.8169C-40.8423 70.8869 -55.4372 54.9251 -71.1024 40.0508C-71.1024 40.0508 -40.7573 104.335 -20.5506 127.727C-20.5506 127.727 -0.0633087 159.607 18.0385 214.983C29.1016 249.295 36.8662 284.584 41.227 320.37L48.0678 320.546Z"
    fill="#FFE162" />
  <path
    d="M27.1247 323.702C27.1247 323.702 26.2127 243.039 -9.64008 173.179C-34.8282 124.08 -34.1968 120.117 -35.7404 105.001C-35.7404 105.001 4.25205 151.645 13.6538 200.569C23.0555 249.492 32.843 331.873 32.843 331.873L27.1247 323.702Z"
    fill="white" />
  <path opacity="0.6"
    d="M27.1247 323.702C27.1247 323.702 26.2127 243.039 -9.64008 173.179C-34.8282 124.08 -34.1968 120.117 -35.7404 105.001C-35.7404 105.001 4.25205 151.645 13.6538 200.569C23.0555 249.492 32.843 331.873 32.843 331.873L27.1247 323.702Z"
    fill="#FFE162" />
  <path
    d="M46.4544 345.025C46.4544 345.025 39.0522 224.452 30.3872 183.034C21.7222 141.615 21.8274 89.5003 25.7565 74.9811C34.7642 103.296 40.1397 132.639 41.7536 162.307C45.2617 214.422 43.9286 236.867 45.4371 261.592C46.9456 286.317 53.4354 347.866 53.4354 347.866L46.4544 345.025Z"
    fill="white" />
  <path opacity="0.3"
    d="M46.4544 345.025C46.4544 345.025 39.0522 224.452 30.3872 183.034C21.7222 141.615 21.8274 89.5003 25.7565 74.9811C34.7642 103.296 40.1397 132.639 41.7536 162.307C45.2617 214.422 43.9286 236.867 45.4371 261.592C46.9456 286.317 53.4354 347.866 53.4354 347.866L46.4544 345.025Z"
    fill="#FFE162" />
  <path
    d="M62.3451 360H23.2297C21.3547 359.861 19.5981 359.031 18.3014 357.67C17.0047 356.308 16.2606 354.514 16.2135 352.635L9.19733 278.811C9.15289 278.534 9.16546 278.251 9.23416 277.978C9.30285 277.706 9.4262 277.45 9.59687 277.227C9.76755 277.004 9.98188 276.818 10.2268 276.68C10.4717 276.543 10.7422 276.456 11.0216 276.427H74.9391C75.2174 276.456 75.4866 276.542 75.73 276.68C75.9735 276.819 76.1859 277.005 76.3538 277.229C76.5217 277.453 76.6416 277.709 76.706 277.981C76.7704 278.253 76.7781 278.536 76.7283 278.811L69.7121 352.635C69.659 354.572 68.8658 356.414 67.4955 357.784C66.1253 359.154 64.2822 359.947 62.3451 360Z"
    fill="#DFD6BC" />
  <path opacity="0.5"
    d="M75.1157 294.804H10.3563L8.95298 278.741C8.90847 278.471 8.9202 278.194 8.98745 277.928C9.0547 277.661 9.17612 277.412 9.34395 277.195C9.51179 276.978 9.72241 276.798 9.96297 276.665C10.2035 276.533 10.4688 276.452 10.7421 276.427H74.7299C75.0032 276.452 75.2685 276.533 75.509 276.665C75.7496 276.798 75.9602 276.978 76.1281 277.195C76.2959 277.412 76.4173 277.661 76.4846 277.928C76.5518 278.194 76.5635 278.471 76.519 278.741L75.1157 294.804Z"
    fill="white" />
  <path opacity="0.6"
    d="M503.269 295.718H426.09V138.602H541.296V235.186C541.296 235.186 538.455 282.426 503.269 295.718Z"
    fill="#FFE162" />
  <path opacity="0.2"
    d="M513.282 287.802H436.104V130.476H551.275V227.06C551.275 227.06 548.468 274.335 513.282 287.802Z"
    fill="#FFE162" />
  <path
    d="M503.269 295.718C503.269 295.718 511.408 276.394 504.286 259.911C504.286 259.911 541.227 252.371 541.227 234.239C541.227 234.239 540.455 283.899 503.269 295.718Z"
    fill="#FFE162" />
  <path
    d="M281.849 305.746C281.849 308.297 280.837 310.745 279.035 312.553C277.234 314.361 274.789 315.381 272.236 315.39H186.604C185.338 315.39 184.086 315.14 182.917 314.655C181.749 314.17 180.687 313.459 179.794 312.563C178.901 311.667 178.194 310.604 177.713 309.434C177.232 308.264 176.987 307.01 176.992 305.746V272.709H281.849V305.746Z"
    fill="#FFE162" />
  <path opacity="0.3"
    d="M270.938 90.6225H202.355L200.776 84.5553C200.732 84.413 200.722 84.2623 200.747 84.1154C200.772 83.9685 200.831 83.8296 200.92 83.71C201.009 83.5904 201.125 83.4934 201.258 83.427C201.392 83.3606 201.539 83.3266 201.688 83.3278H271.604C271.754 83.3284 271.902 83.3631 272.036 83.4294C272.17 83.4956 272.287 83.5916 272.378 83.71C272.47 83.8284 272.533 83.966 272.563 84.1125C272.593 84.259 272.589 84.4105 272.552 84.5553L270.938 90.6225Z"
    fill="#FFC466" />
  <path opacity="0.3"
    d="M277.603 146.104L265.675 194.432C265.288 196.006 264.389 197.407 263.119 198.416C261.85 199.425 260.281 199.985 258.659 200.008H160.889V98.0575H277.603V146.104Z"
    fill="#FFC466" />
  <path opacity="0.5" d="M518.529 180.581H447.209V184.965H518.529V180.581Z" fill="white" />
  <path opacity="0.5" d="M518.529 194.855H447.209V199.239H518.529V194.855Z" fill="white" />
  <path opacity="0.5" d="M518.529 209.164H447.209V213.548H518.529V209.164Z" fill="white" />
  <path opacity="0.5" d="M518.529 223.438H447.209V227.821H518.529V223.438Z" fill="white" />
  <path opacity="0.5" d="M518.529 237.711H447.209V242.095H518.529V237.711Z" fill="white" />
  <path d="M113.529 355.651V335.205" stroke="#DFD6BC" stroke-width="3" stroke-linecap="round" stroke-linejoin="round" />
  <path d="M157.205 355.651V335.205" stroke="#DFD6BC" stroke-width="3" stroke-linecap="round" stroke-linejoin="round" />
  <path d="M272.516 355.651V335.205" stroke="#DFD6BC" stroke-width="3" stroke-linecap="round" stroke-linejoin="round" />
  <path
    d="M140.226 317.424H274.762C277.32 317.424 279.774 318.44 281.583 320.249C283.392 322.058 284.409 324.511 284.409 327.069V342.64C284.409 345.198 283.392 347.651 281.583 349.46C279.774 351.268 277.32 352.285 274.762 352.285H140.226V317.424Z"
    fill="white" />
  <path opacity="0.3"
    d="M140.226 317.424H277.042C278.986 317.424 280.851 318.196 282.226 319.571C283.601 320.946 284.374 322.81 284.374 324.754V344.92C284.374 346.864 283.601 348.728 282.226 350.102C280.851 351.477 278.986 352.249 277.042 352.249H140.226V317.389V317.424Z"
    fill="#FFC466" />
  <path
    d="M276.341 224.031C273.587 231.966 273.476 240.578 276.025 248.581C277.323 252.627 277.986 256.851 277.99 261.101V305.676C277.99 307.204 277.385 308.671 276.307 309.755C275.229 310.839 273.765 311.453 272.236 311.462H186.604C185.075 311.453 183.611 310.839 182.533 309.755C181.455 308.671 180.85 307.204 180.85 305.676V260.75C180.867 257.082 181.769 253.473 183.481 250.229L186.779 244.056C188.077 241.613 188.721 238.876 188.647 236.11C188.573 233.345 187.785 230.645 186.358 228.275L183.832 224.101H276.341V224.031ZM280.235 220.244H178.991C178.792 220.249 178.598 220.305 178.427 220.407C178.256 220.509 178.115 220.654 178.016 220.826C177.917 220.999 177.865 221.194 177.863 221.393C177.862 221.592 177.912 221.788 178.009 221.962L183.061 230.274C184.142 232.07 184.74 234.116 184.795 236.212C184.85 238.308 184.362 240.382 183.376 242.233L180.079 248.405C178.05 252.229 176.99 256.492 176.992 260.82V305.816C176.987 307.081 177.232 308.334 177.713 309.504C178.194 310.674 178.901 311.737 179.794 312.633C180.687 313.529 181.749 314.24 182.917 314.725C184.086 315.211 185.338 315.46 186.604 315.46H272.307C274.859 315.451 277.304 314.431 279.106 312.623C280.907 310.815 281.919 308.368 281.919 305.816V261.171C281.928 256.528 281.206 251.912 279.779 247.493C277.427 240.11 277.587 232.156 280.235 224.873L281.358 221.716C281.427 221.545 281.453 221.359 281.433 221.176C281.413 220.992 281.348 220.816 281.244 220.663C281.14 220.511 281 220.386 280.836 220.301C280.672 220.215 280.49 220.171 280.305 220.173L280.235 220.244Z"
    fill="white" />
  <path
    d="M276.341 224.031C273.587 231.966 273.476 240.578 276.025 248.581C277.323 252.627 277.986 256.851 277.99 261.101V305.676C277.99 307.204 277.385 308.671 276.307 309.755C275.229 310.839 273.765 311.453 272.236 311.462H186.604C185.075 311.453 183.611 310.839 182.533 309.755C181.455 308.671 180.85 307.204 180.85 305.676V260.75C180.867 257.082 181.769 253.473 183.481 250.229L186.779 244.056C188.077 241.613 188.721 238.876 188.647 236.11C188.573 233.345 187.785 230.645 186.358 228.275L183.832 224.101H276.341V224.031ZM280.235 220.244H178.991C178.792 220.249 178.598 220.305 178.427 220.407C178.256 220.509 178.115 220.654 178.016 220.826C177.917 220.999 177.865 221.194 177.863 221.393C177.862 221.592 177.912 221.788 178.009 221.962L183.061 230.274C184.142 232.07 184.74 234.116 184.795 236.212C184.85 238.308 184.362 240.382 183.376 242.233L180.079 248.405C178.05 252.229 176.99 256.492 176.992 260.82V305.816C176.987 307.081 177.232 308.334 177.713 309.504C178.194 310.674 178.901 311.737 179.794 312.633C180.687 313.529 181.749 314.24 182.917 314.725C184.086 315.211 185.338 315.46 186.604 315.46H272.307C274.859 315.451 277.304 314.431 279.106 312.623C280.907 310.815 281.919 308.368 281.919 305.816V261.171C281.928 256.528 281.206 251.912 279.779 247.493C277.427 240.11 277.587 232.156 280.235 224.873L281.358 221.716C281.427 221.545 281.453 221.359 281.433 221.176C281.413 220.992 281.348 220.816 281.244 220.663C281.14 220.511 281 220.386 280.836 220.301C280.672 220.215 280.49 220.171 280.305 220.173L280.235 220.244Z"
    fill="#FFC466" />
  <path
    d="M157.872 83.8891H111.916C106.588 83.8891 102.268 88.2071 102.268 93.5336V342.64C102.268 347.967 106.588 352.285 111.916 352.285H157.872C163.2 352.285 167.519 347.967 167.519 342.64V93.5336C167.519 88.2071 163.2 83.8891 157.872 83.8891Z"
    fill="white" />
  <path
    d="M158.398 83.8891H111.389C106.352 83.8891 102.268 87.9716 102.268 93.0075V343.166C102.268 348.202 106.352 352.285 111.389 352.285H158.398C163.435 352.285 167.519 348.202 167.519 343.166V93.0075C167.519 87.9716 163.435 83.8891 158.398 83.8891Z"
    fill="#FFDCA3" />
  <path
    d="M439.902 351.042H375.634C372.827 351.042 366.898 348.131 366.898 344.554H448.602C448.602 348.131 442.709 351.042 439.902 351.042Z"
    fill="#FFC466" />
  <path
    d="M438.709 327.389C446.13 327.389 452.145 321.376 452.145 313.957C452.145 306.539 446.13 300.525 438.709 300.525C431.289 300.525 425.273 306.539 425.273 313.957C425.273 321.376 431.289 327.389 438.709 327.389Z"
    stroke="#FFC466" stroke-width="5" stroke-linecap="round" stroke-linejoin="round" />
  <path
    d="M425.458 339.473H389.43C388.398 339.472 387.395 339.127 386.582 338.492C385.768 337.856 385.19 336.967 384.94 335.966L375.188 292.583C375.082 292.068 375.094 291.535 375.223 291.025C375.351 290.515 375.593 290.04 375.929 289.636C376.266 289.232 376.69 288.909 377.169 288.69C377.648 288.472 378.169 288.364 378.696 288.375H436.509C437.035 288.364 437.557 288.472 438.036 288.69C438.515 288.909 438.938 289.232 439.275 289.636C439.612 290.04 439.854 290.515 439.982 291.025C440.111 291.535 440.123 292.068 440.017 292.583L430.23 335.966C429.976 337.019 429.357 337.948 428.484 338.59C427.611 339.232 426.54 339.544 425.458 339.473Z"
    fill="white" />
  <g opacity="0.6">
    <path
      d="M435.983 292.268L426.336 335.159C426.303 335.329 426.211 335.482 426.076 335.591C425.941 335.7 425.772 335.759 425.599 335.755H389.571C389.402 335.757 389.237 335.698 389.108 335.588C388.979 335.479 388.895 335.326 388.869 335.159L379.222 292.268H435.983ZM436.65 288.375H378.696C378.169 288.364 377.648 288.472 377.169 288.69C376.69 288.909 376.267 289.232 375.93 289.636C375.593 290.04 375.351 290.515 375.223 291.025C375.094 291.535 375.082 292.068 375.188 292.583L384.94 335.966C385.19 336.967 385.768 337.856 386.582 338.491C387.395 339.127 388.398 339.472 389.43 339.473H425.459C426.493 339.478 427.498 339.135 428.313 338.499C429.128 337.863 429.704 336.97 429.949 335.966L439.737 292.583C439.842 292.068 439.83 291.535 439.702 291.025C439.573 290.515 439.331 290.04 438.995 289.636C438.658 289.232 438.234 288.909 437.755 288.69C437.276 288.472 436.755 288.364 436.229 288.375H436.65Z"
      fill="#FFC466" />
  </g>
  <g opacity="0.6">
    <path opacity="0.6" d="M435.678 299.668H380.27L381.204 303.958H434.721L435.678 299.668Z" fill="#FFC466" />
  </g>
  <path opacity="0.7"
    d="M393.856 275.029C392.409 274.045 391.224 272.722 390.406 271.175C389.587 269.629 389.159 267.906 389.159 266.156C389.159 264.406 389.587 262.683 390.406 261.137C391.224 259.59 392.409 258.267 393.856 257.283C404.801 247.849 397.75 244.062 395.083 241.081"
    stroke="#FFC466" stroke-width="3" stroke-linecap="round" stroke-linejoin="round" />
  <path opacity="0.7"
    d="M409.608 275.029C408.161 274.045 406.976 272.722 406.158 271.175C405.339 269.629 404.911 267.906 404.911 266.156C404.911 264.406 405.339 262.683 406.158 261.137C406.976 259.59 408.161 258.267 409.608 257.283C420.553 247.849 413.502 244.062 410.835 241.081"
    stroke="#FFC466" stroke-width="3" stroke-linecap="round" stroke-linejoin="round" />
  <path opacity="0.7"
    d="M423.921 275.029C422.474 274.045 421.29 272.722 420.471 271.175C419.652 269.629 419.225 267.906 419.225 266.156C419.225 264.406 419.652 262.683 420.471 261.137C421.29 259.59 422.474 258.267 423.921 257.283C434.866 247.849 427.815 244.062 425.149 241.081"
    stroke="#FFC466" stroke-width="3" stroke-linecap="round" stroke-linejoin="round" />
  <path d="M292.04 113.524H271.553" stroke="#DFD6BC" stroke-width="5" stroke-linecap="round" stroke-linejoin="round" />
  <path
    d="M274.621 90.6226H193.865C188.537 90.6226 184.217 94.9405 184.217 100.267V161.781C184.217 167.107 188.537 171.425 193.865 171.425H274.621C279.949 171.425 284.268 167.107 284.268 161.781V100.267C284.268 94.9405 279.949 90.6226 274.621 90.6226Z"
    fill="white" />
  <path
    d="M276.971 90.6226H191.514C187.484 90.6226 184.217 93.8886 184.217 97.9173V164.131C184.217 168.159 187.484 171.425 191.514 171.425H276.971C281.001 171.425 284.268 168.159 284.268 164.131V97.9173C284.268 93.8886 281.001 90.6226 276.971 90.6226Z"
    fill="#FFC466" fill-opacity="0.6" />
  <path d="M184.217 118.704H284.268" stroke="#FFEDD1" stroke-width="3" stroke-linejoin="round" />
  <path d="M284.268 108.764H184.217" stroke="#FFEDD1" stroke-width="3" stroke-linejoin="round" />
  <path
    d="M228.875 213.545H266.377H303.879C305.82 213.554 307.68 214.33 309.053 215.702C310.426 217.075 311.201 218.934 311.211 220.875V291.402C311.201 293.343 310.426 295.202 309.053 296.575C307.68 297.947 305.82 298.722 303.879 298.732H266.623"
    stroke="#DFD6BC" stroke-width="5" stroke-linecap="round" stroke-linejoin="round" />
</svg>
