<svg width="36" height="36" viewBox="0 0 36 36" fill="none" xmlns="http://www.w3.org/2000/svg">
  <path
    d="M18.4723 27.501L16.2203 29.7369C14.956 31.0404 13.2564 31.8327 11.4457 31.9626C9.63494 32.0925 7.83979 31.5509 6.40261 30.4411C5.64302 29.8148 5.02316 29.036 4.58308 28.155C4.143 27.2741 3.89248 26.3106 3.84771 25.3267C3.80295 24.3428 3.96492 23.3605 4.32317 22.4432C4.68143 21.5259 5.22799 20.694 5.92757 20.0012L8.42596 17.4836C8.59087 17.3199 8.72176 17.1252 8.81109 16.9107C8.90041 16.6962 8.9464 16.466 8.9464 16.2336C8.9464 16.0012 8.90041 15.7711 8.81109 15.5566C8.72176 15.342 8.59087 15.1473 8.42596 14.9837C8.2624 14.8186 8.0678 14.6877 7.8534 14.5983C7.639 14.5089 7.40903 14.4629 7.17676 14.4629C6.9445 14.4629 6.71453 14.5089 6.50013 14.5983C6.28572 14.6877 6.09113 14.8186 5.92757 14.9837L3.69309 17.2371C1.81077 19.061 0.653816 21.5064 0.437021 24.1193C0.220225 26.7322 0.958318 29.335 2.51427 31.4446C3.43776 32.6434 4.6056 33.6318 5.94021 34.3443C7.27483 35.0567 8.74567 35.4768 10.255 35.5767C11.7644 35.6766 13.2777 35.454 14.6945 34.9237C16.1113 34.3934 17.3991 33.5675 18.4723 32.5009L20.9707 30.0009C21.302 29.6694 21.4882 29.2198 21.4882 28.751C21.4882 28.2821 21.302 27.8325 20.9707 27.501C20.6394 27.1695 20.1901 26.9832 19.7215 26.9832C19.253 26.9832 18.8036 27.1695 18.4723 27.501ZM31.4569 2.53674C29.3342 0.963643 26.7117 0.217573 24.0794 0.43788C21.447 0.658188 18.9849 1.82981 17.1528 3.73389L15.2526 5.67047C15.0354 5.82846 14.8538 6.03032 14.7195 6.26299C14.5852 6.49566 14.5013 6.75395 14.4731 7.02114C14.4449 7.28833 14.4731 7.55847 14.5558 7.81407C14.6386 8.06967 14.774 8.30503 14.9535 8.50492C15.117 8.66993 15.3116 8.80091 15.526 8.89028C15.7404 8.97966 15.9704 9.02568 16.2027 9.02568C16.4349 9.02568 16.6649 8.97966 16.8793 8.89028C17.0937 8.80091 17.2883 8.66993 17.4519 8.50492L19.7391 6.19863C20.9964 4.88936 22.694 4.09275 24.5039 3.96269C26.3139 3.83263 28.1078 4.37835 29.5392 5.49442C30.3044 6.12082 30.9292 6.90153 31.3728 7.78568C31.8163 8.66984 32.0688 9.63759 32.1136 10.6259C32.1584 11.6142 31.9946 12.6008 31.6329 13.5215C31.2712 14.4423 30.7196 15.2764 30.0142 15.9696L27.5158 18.4871C27.3509 18.6508 27.22 18.8455 27.1307 19.06C27.0414 19.2746 26.9954 19.5047 26.9954 19.7371C26.9954 19.9695 27.0414 20.1996 27.1307 20.4141C27.22 20.6287 27.3509 20.8234 27.5158 20.9871C27.6794 21.1521 27.874 21.283 28.0884 21.3724C28.3028 21.4618 28.5327 21.5078 28.765 21.5078C28.9973 21.5078 29.2272 21.4618 29.4416 21.3724C29.656 21.283 29.8506 21.1521 30.0142 20.9871L32.5126 18.4871C33.5756 17.4134 34.3984 16.1259 34.9266 14.71C35.4549 13.294 35.6764 11.782 35.5766 10.2739C35.4768 8.76584 35.0579 7.29621 34.3477 5.96235C33.6375 4.62849 32.6521 3.46084 31.4569 2.53674Z"
    fill="#B0865B" />
</svg>
