<svg width="40" height="40" viewBox="0 0 40 40" fill="none" xmlns="http://www.w3.org/2000/svg">
<path d="M22.8337 14.7089L14.7118 22.8308C14.5496 22.9917 14.4209 23.1831 14.333 23.394C14.2452 23.6049 14.2 23.831 14.2 24.0595C14.2 24.2879 14.2452 24.5141 14.333 24.725C14.4209 24.9359 14.5496 25.1273 14.7118 25.2881C14.8727 25.4503 15.0641 25.5791 15.275 25.6669C15.4858 25.7548 15.712 25.8 15.9405 25.8C16.1689 25.8 16.3951 25.7548 16.606 25.6669C16.8168 25.5791 17.0082 25.4503 17.1691 25.2881L25.291 17.1662C25.6169 16.8404 25.7999 16.3984 25.7999 15.9376C25.7999 15.4767 25.6169 15.0348 25.291 14.7089C24.9652 14.3831 24.5232 14.2 24.0624 14.2C23.6016 14.2 23.1596 14.3831 22.8337 14.7089Z" fill="#B0865B"/>
<path d="M20.4723 29.501L18.2203 31.7369C16.956 33.0404 15.2564 33.8327 13.4457 33.9626C11.6349 34.0925 9.83979 33.5509 8.40261 32.4411C7.64302 31.8148 7.02316 31.036 6.58308 30.155C6.143 29.2741 5.89248 28.3106 5.84771 27.3267C5.80295 26.3428 5.96492 25.3605 6.32317 24.4432C6.68143 23.5259 7.22799 22.694 7.92757 22.0012L10.426 19.4836C10.5909 19.3199 10.7218 19.1252 10.8111 18.9107C10.9004 18.6962 10.9464 18.466 10.9464 18.2336C10.9464 18.0012 10.9004 17.7711 10.8111 17.5566C10.7218 17.342 10.5909 17.1473 10.426 16.9837C10.2624 16.8186 10.0678 16.6877 9.8534 16.5983C9.639 16.5089 9.40903 16.4629 9.17676 16.4629C8.9445 16.4629 8.71453 16.5089 8.50013 16.5983C8.28572 16.6877 8.09113 16.8186 7.92757 16.9837L5.69309 19.2371C3.81077 21.061 2.65382 23.5064 2.43702 26.1193C2.22023 28.7322 2.95832 31.335 4.51427 33.4446C5.43776 34.6434 6.6056 35.6318 7.94021 36.3443C9.27483 37.0567 10.7457 37.4768 12.255 37.5767C13.7644 37.6766 15.2777 37.454 16.6945 36.9237C18.1113 36.3934 19.3991 35.5675 20.4723 34.5009L22.9707 32.0009C23.302 31.6694 23.4882 31.2198 23.4882 30.751C23.4882 30.2821 23.302 29.8325 22.9707 29.501C22.6394 29.1695 22.1901 28.9832 21.7215 28.9832C21.253 28.9832 20.8036 29.1695 20.4723 29.501ZM33.4569 4.53674C31.3342 2.96364 28.7117 2.21757 26.0794 2.43788C23.447 2.65819 20.9849 3.82981 19.1528 5.73389L17.2526 7.67047C17.0354 7.82846 16.8538 8.03032 16.7195 8.26299C16.5852 8.49566 16.5013 8.75395 16.4731 9.02114C16.4449 9.28833 16.4731 9.55847 16.5558 9.81407C16.6386 10.0697 16.774 10.305 16.9535 10.5049C17.117 10.6699 17.3116 10.8009 17.526 10.8903C17.7404 10.9797 17.9704 11.0257 18.2027 11.0257C18.4349 11.0257 18.6649 10.9797 18.8793 10.8903C19.0937 10.8009 19.2883 10.6699 19.4519 10.5049L21.7391 8.19863C22.9964 6.88936 24.694 6.09275 26.5039 5.96269C28.3139 5.83263 30.1078 6.37835 31.5392 7.49442C32.3044 8.12082 32.9292 8.90153 33.3728 9.78568C33.8163 10.6698 34.0688 11.6376 34.1136 12.6259C34.1584 13.6142 33.9946 14.6008 33.6329 15.5215C33.2712 16.4423 32.7196 17.2764 32.0142 17.9696L29.5158 20.4871C29.3509 20.6508 29.22 20.8455 29.1307 21.06C29.0414 21.2746 28.9954 21.5047 28.9954 21.7371C28.9954 21.9695 29.0414 22.1996 29.1307 22.4141C29.22 22.6287 29.3509 22.8234 29.5158 22.9871C29.6794 23.1521 29.874 23.283 30.0884 23.3724C30.3028 23.4618 30.5327 23.5078 30.765 23.5078C30.9973 23.5078 31.2272 23.4618 31.4416 23.3724C31.656 23.283 31.8506 23.1521 32.0142 22.9871L34.5126 20.4871C35.5756 19.4134 36.3984 18.1259 36.9266 16.71C37.4549 15.294 37.6764 13.782 37.5766 12.2739C37.4768 10.7658 37.0579 9.29621 36.3477 7.96235C35.6375 6.62849 34.6521 5.46084 33.4569 4.53674Z" fill="#B0865B"/>
</svg>
