
<svg width="534" height="170" viewBox="0 0 534 170" fill="none" xmlns="http://www.w3.org/2000/svg">
<ellipse cx="43.6532" cy="59.1549" rx="2.81633" ry="2.8169" fill="#EA3B3D"/>
<ellipse cx="502.715" cy="138.028" rx="2.81631" ry="2.81691" fill="#EA3B3D"/>
<ellipse cx="416.817" cy="2.8169" rx="2.81633" ry="2.8169" fill="#EA3B3D"/>
<ellipse cx="97.1635" cy="61.9718" rx="2.81633" ry="2.8169" fill="#EA3B3D"/>
<ellipse cx="504.123" cy="25.3521" rx="2.81633" ry="2.8169" fill="#EA3B3D"/>
<ellipse cx="481.592" cy="78.8732" rx="2.81633" ry="2.8169" fill="#EA3B3D"/>
<ellipse cx="268.96" cy="30.9859" rx="2.81635" ry="2.8169" fill="#EA3B3D"/>
<ellipse cx="2.81633" cy="88.7324" rx="2.81633" ry="2.8169" fill="#EA3B3D"/>
<ellipse cx="32.3879" cy="166.197" rx="2.81633" ry="2.8169" fill="#EA3B3D"/>
<rect width="4.22498" height="8.44974" transform="matrix(0.660167 0.751119 -0.750986 0.660318 530.544 82.9475)" fill="#F7CF5D"/>
<rect width="4.22449" height="8.45071" transform="matrix(0.999409 -0.0343624 0.0343484 0.99941 435.123 43.8071)" fill="#F7CF5D"/>
<rect width="4.22451" height="8.4507" transform="matrix(0.999409 -0.0343622 0.0343485 0.99941 166.164 14.2297)" fill="#F7CF5D"/>
<rect width="4.22469" height="8.4503" transform="matrix(0.876565 -0.481283 0.481133 0.876648 5.63257 48.5121)" fill="#F7CF5D"/>
<path d="M55.4392 28.8748C56.7216 28.2929 59.8681 28.4119 60.7407 30.3359C62.195 33.5425 57.7661 34.0054 59.2204 37.212C60.6747 40.4186 62.9486 38.6136 64.231 38.0318" stroke="#F3AB58" stroke-width="2"/>
<path d="M356.568 64.7887C358.25 66.0859 360.755 69.7955 359.465 71.4687C357.316 74.2574 353.129 69.2506 350.98 72.0392C348.83 74.8278 352.625 76.8643 354.307 78.1614" stroke="#F3AB58" stroke-width="2"/>
<path d="M40.2419 134.947C40.5816 136.314 39.8944 139.387 37.8445 139.897C34.428 140.746 34.7756 136.306 31.3591 137.155C27.9427 138.004 29.3053 140.568 29.645 141.935" stroke="#F3AB58" stroke-width="2"/>
<path d="M182.424 71.1604C181.409 72.1368 178.403 73.0743 176.939 71.5516C174.499 69.0137 178.52 67.0999 176.079 64.562C173.639 62.0241 172.097 64.4844 171.082 65.4607" stroke="#F3AB58" stroke-width="2"/>
<path d="M501.346 108.863C500.937 110.211 498.77 112.496 496.749 111.882C493.381 110.857 495.957 107.224 492.589 106.2C489.221 105.176 489.075 108.076 488.666 109.423" stroke="#F3AB58" stroke-width="2"/>
<rect width="4.22534" height="8.44901" transform="matrix(-0.089173 -0.996016 0.996013 -0.0892084 60.928 104.962)" fill="#F7CF5D"/>
</svg>
